<svg width="624" height="669" viewBox="0 0 624 669" fill="none" xmlns="http://www.w3.org/2000/svg">
<path d="M300.933 1.24595C298 2.17928 291.733 5.51261 287.067 8.71261C278.8 14.3126 278.133 14.5793 264.4 15.6459C226 18.5793 209.067 24.9793 166.4 52.7126C153.2 61.2459 141.733 68.5793 140.933 69.1126C140.133 69.5126 136.267 69.1126 132.267 68.0459C106.4 61.1126 80.2667 72.1793 77.0667 91.5126C75.4667 100.979 79.0667 108.179 88.2667 114.179L91.4667 116.179L84.6667 133.646C66.6667 179.246 63.4667 201.646 61.7333 296.046C59.6 401.779 56.6667 424.979 38.5333 476.046C26.1333 510.846 24.2667 519.113 23.4667 546.046L22.6667 569.379L14.6667 577.913C4.4 588.979 0 598.579 0 609.379C0 628.179 11.7333 641.379 35.4667 649.513C58.2667 657.246 88.4 660.713 133.067 660.713C167.6 660.713 182.4 659.646 227.067 653.779C290 645.646 333.467 647.113 446.4 660.846C464.667 662.979 485.467 665.246 492.4 665.779C507.2 666.846 536 665.646 548.533 663.379C563.2 660.579 578.267 661.246 592.4 665.246C599.333 667.113 606.933 668.713 609.333 668.713C630.667 668.713 626.4 639.513 601.2 611.513C592.667 602.179 590.667 598.979 586.4 587.646C581.733 575.779 580.533 573.913 571.6 565.113L561.733 555.513V547.779C561.733 533.913 556.533 519.513 546.667 505.513L540.8 497.379L541.867 487.379C544.4 464.446 552.667 384.713 554.533 365.113C559.067 317.113 558.267 215.513 553.067 178.313L551.2 165.513L559.6 156.713C570 145.513 573.867 137.513 574.8 125.246C575.333 117.513 574.933 114.979 572.667 110.446C569.867 104.979 562.667 99.3793 558.533 99.3793C557.333 99.3793 552.933 95.9126 548.667 91.5126C543.467 86.1793 536.933 81.5126 527.733 76.5793C520.4 72.7126 505.867 62.9793 495.333 55.1126C465.867 32.8459 461.067 30.9793 427.733 29.3793C401.333 28.0459 387.6 24.5793 336.933 6.17928C320 0.179278 308.933 -1.42072 300.933 1.24595ZM336 12.1793C390.667 31.7793 398.667 33.7793 429.067 35.2459C461.867 36.9793 463.733 37.7793 496.133 65.7793C513.333 80.4459 518.267 86.0459 519.867 92.4459C522.267 101.379 514.667 112.846 502.533 118.579C485.733 126.579 454.533 128.313 439.6 122.313L432.667 119.513L430.267 122.313C428.8 123.779 425.6 126.046 423.067 127.379C412.8 132.446 404.933 133.379 370.4 133.379C342 133.246 334.533 132.846 319.733 130.313C258.8 119.779 210.933 103.513 179.333 82.4459L168.4 75.2459L174.267 67.6459C188.533 49.1126 207.467 36.0459 231.333 28.1793C245.067 23.7793 257.333 21.9126 280.8 20.8459C300.533 19.9126 300.933 19.9126 295.333 18.0459C292.267 17.1126 289.867 15.6459 290.133 14.8459C290.267 14.0459 293.733 11.7793 297.733 9.64595C308.4 4.31261 315.2 4.71261 336 12.1793ZM137.467 79.9126C141.333 81.9126 151.6 87.9126 160.133 93.2459C197.733 116.846 223.467 125.779 283.733 136.579C327.067 144.313 336.667 145.246 367.067 145.246C393.2 145.246 397.2 144.979 412.8 141.646C426.667 138.713 434.267 137.913 452.133 137.513C471.6 137.113 475.867 136.579 486.133 133.513C500.667 129.246 508.267 125.379 524.133 114.579C530.933 109.913 538.933 105.513 541.867 104.713C550.933 102.179 561.467 105.913 565.067 112.713C567.6 117.646 567.6 122.446 564.933 131.379C563.2 137.246 561.067 140.446 553.2 148.046C532.133 169.113 488.533 188.713 462.933 188.713C458 188.713 453.6 188.179 453.2 187.646C452.8 186.979 456 185.379 460.133 184.179C471.333 180.713 498 167.379 511.733 158.446C523.067 150.979 538 139.513 548.4 130.046L553.067 125.913L545.733 129.779C541.733 131.913 531.867 137.379 523.733 141.779C470.4 170.846 431.6 185.913 409.067 186.446C398.267 186.579 382.933 182.979 385.333 180.713C385.867 180.179 392.133 177.246 399.067 174.179C417.333 166.179 451.867 146.846 448.667 146.313C443.6 145.513 419.333 151.379 397.867 158.713C385.867 162.713 370.267 167.246 363.067 168.713C314.933 178.579 220.267 173.379 186 159.113C175.867 154.846 166 146.713 159.067 136.579L156 132.046L159.867 135.646C175.333 149.646 192.4 158.179 213.067 162.179C225.733 164.579 272.8 165.379 284.533 163.246L294.4 161.513L276.267 159.246C247.733 155.646 234.8 151.513 210.133 137.646C199.2 131.646 199.067 131.646 201.067 135.246C202.133 137.379 205.733 141.646 208.933 144.846C212.267 147.913 214.8 150.713 214.667 150.846C214.533 151.113 210.133 150.313 205.067 149.113C187.867 145.246 180.933 140.979 156.533 119.779C145.467 110.046 137.067 105.513 125.467 102.713C110.133 99.1126 109.733 99.5126 118.667 109.646C122.933 114.713 128.933 121.646 131.733 125.246L137.067 131.779L124.4 123.779C117.467 119.379 108.267 113.779 103.867 111.246C99.6 108.713 94.6667 104.979 92.9333 102.979C86.6667 95.5126 90 83.5126 100 78.0459C104.267 75.7793 106.933 75.3793 117.733 75.7793C128.4 76.1793 131.467 76.8459 137.467 79.9126ZM137.067 152.579C141.467 153.913 152.533 158.179 161.733 161.913C170.933 165.779 185.6 170.979 194.267 173.513C232.8 184.713 292.267 192.046 337.733 191.113C359.333 190.713 359.867 190.846 369.733 194.579C378.8 198.179 381.2 198.446 395.067 198.446C405.067 198.446 415.067 197.513 423.733 195.646L437.2 192.979L446.4 196.179C458.133 200.179 470.533 200.313 485.467 196.713C491.6 195.246 499.2 194.046 502.267 194.046C514.8 194.046 534.4 208.713 540.533 222.846C543.733 230.046 544.133 229.646 528.4 237.779C517.067 243.779 510 246.179 493.733 250.046L482.4 252.713L492.933 251.913C504.667 250.979 525.6 246.313 536.133 242.179C540 240.579 543.733 239.379 544.533 239.379C545.333 239.379 545.733 244.046 545.467 251.646L545.067 263.913L530.4 269.113C522.4 271.913 508.267 276.179 499.067 278.713C489.867 281.113 483.733 283.246 485.333 283.246C488.533 283.379 531.067 276.179 539.733 274.046C542.667 273.379 545.467 272.713 546.133 272.713C547.333 272.713 547.333 288.179 546.133 302.979L545.333 313.913L539.867 316.046C528.8 320.579 497.467 327.246 448.4 335.779C441.6 336.979 461.867 336.713 479.2 335.379C499.733 333.779 521.867 330.846 535.467 328.046C540.667 326.979 545.067 326.313 545.333 326.579C546 327.113 543.333 364.446 542.267 371.646C541.733 375.246 540.667 376.846 538 377.913C528.533 381.513 520.533 383.513 508 385.513C500.533 386.579 492.667 388.046 490.4 388.713C484.4 390.313 520.667 390.313 530.933 388.713C535.6 387.913 539.733 387.513 540 387.913C540.4 388.179 539.867 397.246 538.933 407.913L537.333 427.246L527.2 429.913C521.6 431.379 510.8 433.246 503.067 434.046C495.333 434.846 488.8 435.913 488.4 436.179C488.133 436.579 498.8 436.713 512.133 436.446L536.533 436.046L535.733 444.046C534.667 453.779 530.133 482.579 528.667 487.913L527.6 491.646H510.4C491.867 491.513 491.867 491.379 509.733 496.846C525.6 501.779 538.933 513.779 545.6 528.846C548.267 534.713 551.733 552.446 550.533 553.646C550.267 554.046 545.333 553.513 539.6 552.713C528.933 551.113 518.533 551.646 505.733 554.579L498.4 556.313L511.067 557.246C536.667 559.246 554.533 565.246 564.4 575.513C570.4 581.779 577.467 594.979 578.667 602.446C579.333 606.979 579.2 607.379 576.267 607.379C571.333 607.379 562 612.579 557.733 617.779C555.6 620.446 554 622.713 554.267 622.979C554.533 623.246 557.867 621.913 561.867 620.046C570.667 616.046 581.333 615.646 589.067 619.246C601.333 624.846 612.667 644.579 608.267 652.713C605.467 657.513 602.133 657.513 586 652.579L571.733 648.179L537.067 648.446C498.8 648.846 485.733 647.913 412.4 639.379C344.667 631.513 335.733 630.846 300.4 630.846C272.8 630.979 262.133 631.646 231.733 635.113C188.933 640.046 168.933 641.379 158.267 640.046L150.4 639.113L164.4 633.513C213.6 613.779 236.8 609.246 284.4 610.446C316.267 611.246 323.333 612.046 366.933 620.713C382 623.646 399.867 626.979 406.667 628.046C420.533 630.313 461.733 634.446 462.533 633.646C463.333 632.979 374.8 608.179 352.4 602.846C318.133 594.579 292.933 591.379 263.733 591.379C226.8 591.379 202.667 597.246 142.933 620.846C105.333 635.646 93.8667 638.579 75.7333 637.779C66.5333 637.379 59.8667 636.313 54.4 634.313C33.7333 626.713 21.8667 611.379 29.6 601.913C31.8667 598.979 33.2 598.713 42.1333 598.846H52.1333L46.9333 588.846C39.6 574.446 36.4 560.713 36.4 543.779C36.4 525.379 38.6667 515.113 51.0667 478.046C62.8 442.713 66.2667 430.046 68.2667 414.713C69.4667 404.979 70.9333 390.846 71.0667 386.313C71.0667 385.113 72.9333 385.913 76.1333 388.446C80.6667 392.046 98.5333 403.379 99.6 403.379C99.8667 403.379 93.6 396.979 85.6 388.979C71.2 374.846 71.0667 374.579 71.0667 368.313C71.0667 364.846 71.4667 362.046 71.8667 362.046C72.4 362.046 75.2 364.046 78.2667 366.446C83.0667 370.446 96.2667 379.513 101.733 382.713C102.8 383.379 99.3333 379.113 94 373.113C88.5333 367.246 81.4667 358.846 78.2667 354.579C72 346.046 71.3333 342.579 73.2 326.579L74 319.779L85.2 328.579C95.3333 336.713 123.733 353.779 125.067 352.446C125.333 352.179 121.6 348.846 116.667 345.113C99.4667 331.913 87.6 318.979 79.2 304.313C75.2 297.246 74.9333 296.179 75.2 284.446C75.3333 277.646 75.6 271.379 75.8667 270.713C76.1333 269.913 80.9333 273.646 86.4 278.979C95.6 287.913 103.733 294.046 117.733 302.713L123.733 306.313L118.4 300.846C94.6667 276.179 86.4 265.246 80.6667 250.846C77.7333 243.646 77.4667 241.646 78.2667 231.379C78.8 225.113 79.4667 217.513 79.8667 214.313L80.6667 208.579L84.2667 211.779C88.8 216.046 100.133 223.246 111.067 228.713C119.467 232.979 143.067 242.179 143.067 241.246C143.067 241.113 138.4 237.779 132.8 233.913C111.333 219.513 98.8 208.313 89.0667 194.713C84.9333 188.979 84.4 187.379 85.0667 182.713C85.4667 179.913 87.0667 174.846 88.5333 171.513L91.0667 165.513L95.4667 169.513C102 175.646 103.733 176.713 110.933 179.379L117.733 181.779L113.2 176.313C106.533 168.179 99.6 154.179 102.133 154.046C102.267 154.046 104.8 153.113 107.733 152.046C115.2 149.379 127.6 149.646 137.067 152.579Z" fill="black"/>
<path d="M323.067 50.5793C323.067 50.8459 328.267 51.7793 334.8 52.7126C367.2 57.2459 396.8 71.3793 418.667 92.7126C423.333 97.1126 428 102.579 429.067 104.713C431.333 109.113 433.733 109.913 433.733 106.313C433.733 105.113 435.2 100.979 436.933 97.1126C444.4 81.3793 465.333 74.1793 482.933 81.5126C489.867 84.4459 485.867 80.4459 478 76.5793C464.8 70.1793 444.667 73.3793 434.133 83.6459L429.733 87.9126L426.133 84.9793C402.267 65.7793 384.8 57.5126 356.267 52.0459C346.667 50.3126 323.067 49.2459 323.067 50.5793Z" fill="black"/>
<path d="M333.2 204.979C332.667 206.713 332 214.713 331.467 222.846C330.533 239.246 332.4 254.713 336.533 267.779C339.333 276.046 349.867 299.779 350.533 299.113C350.667 298.846 350 295.113 348.933 290.713C345.6 276.579 339.2 239.246 336.933 220.713C335.733 210.846 334.667 202.579 334.4 202.313C334.267 202.179 333.733 203.379 333.2 204.979Z" fill="black"/>
<path d="M360.934 217.246C362.134 232.179 373.334 250.046 388.934 262.446C394.934 267.246 394.667 266.579 385.2 253.513C381.467 248.446 374.4 236.446 369.334 226.846L360.267 209.379L360.934 217.246Z" fill="black"/>
<path d="M396.934 217.379C398.4 226.046 405.334 238.846 411.467 244.046C417.467 249.113 429.734 257.246 429.734 255.913C429.734 255.513 425.6 250.313 420.534 244.313C415.6 238.313 408 228.579 403.734 222.713C396.134 212.179 396.134 212.046 396.934 217.379Z" fill="black"/>
</svg>
