<svg width="131" height="608" viewBox="0 0 131 608" fill="none" xmlns="http://www.w3.org/2000/svg">
<path d="M38.0327 0.917431C37.4994 1.31743 37.0994 11.4508 37.0994 23.4508C37.0994 41.4508 37.3661 45.1841 39.0994 45.8508C40.5661 46.3841 40.9661 47.8508 40.4327 51.5841C40.1661 54.3841 39.4994 72.1174 38.9661 90.9174L38.1661 125.317L30.4327 129.984C26.2994 132.517 20.2994 137.317 17.2327 140.784C10.0327 148.517 2.69941 163.851 0.966074 174.784C0.166074 180.117 -0.100593 260.917 0.0327404 393.051L0.43274 602.917L3.63274 605.451C6.56607 607.851 9.63274 607.984 63.7661 607.984C96.8327 607.984 122.299 607.451 124.299 606.651C126.566 605.851 128.166 603.851 129.099 600.384C130.166 596.784 130.433 535.051 130.166 383.317L129.766 171.317L126.699 163.451C121.233 148.784 111.766 137.051 99.4994 129.451C94.6994 126.651 94.4327 126.117 94.4327 119.584C94.4327 115.717 94.0327 97.5841 93.4994 79.1841C92.6994 45.7174 92.6994 45.7174 95.6327 44.9174C98.2994 44.2508 98.4327 43.5841 98.4327 22.9174C98.4327 4.65076 98.1661 1.4508 96.2994 0.78413C93.4994 -0.282537 39.0994 -0.282569 38.0327 0.917431ZM94.4327 23.3175V42.6508H67.0994H39.7661V23.3175V3.98408H67.0994H94.4327V23.3175ZM90.4327 87.1841C91.0994 125.451 91.2327 128.517 93.6327 129.851C108.299 138.651 115.233 146.117 122.033 160.651L125.766 168.651V247.984L125.899 327.317L125.099 247.984L124.433 168.651L120.166 159.717C115.233 149.184 104.833 137.717 96.5661 133.184C89.3661 129.451 89.0994 128.251 89.0994 105.851V89.3174H66.5661H43.8994L43.2327 94.9174C42.9661 98.1174 42.9661 88.7841 43.2327 74.1174C43.6327 59.5841 44.1661 47.0508 44.5661 46.3841C44.9661 45.8508 55.3661 45.4508 67.4994 45.5841L89.7661 45.9841L90.4327 87.1841ZM85.6327 94.1174C86.0327 95.3174 86.4327 104.251 86.4327 114.117V131.984L91.3661 133.984C103.499 139.051 115.233 152.917 119.766 167.851C122.433 176.117 122.433 180.917 122.433 388.251V600.251L119.499 599.584C117.766 599.317 110.166 597.584 102.433 595.851C90.8327 593.317 84.4327 592.784 65.0994 592.784C41.7661 592.651 28.2994 594.384 14.2994 599.317C11.6327 600.251 8.96607 600.784 8.56607 600.384C8.16607 599.851 7.76607 504.251 7.76607 387.851C7.76607 180.917 7.76607 176.117 10.4327 167.851C15.0994 152.651 28.4327 137.317 40.2994 133.317C44.2994 131.984 44.8327 131.317 45.6327 125.717C46.0327 122.384 46.4327 113.451 46.4327 105.851V91.9841H65.6327C81.8994 91.9841 84.9661 92.2508 85.6327 94.1174ZM6.83274 602.517C8.29941 604.384 8.16607 604.384 6.16607 602.784C3.89941 601.051 3.76607 589.451 4.03274 386.784L4.43274 172.651L4.69941 386.517C5.09941 554.917 5.49941 600.784 6.83274 602.517ZM126.433 468.517C126.433 587.317 126.166 601.317 124.299 603.184C122.433 605.051 115.366 605.317 65.3661 605.317C28.4327 605.184 9.23274 604.784 10.5661 603.984C14.8327 601.451 34.9661 597.451 50.4327 595.984C69.2327 594.117 89.2327 595.717 108.566 600.651C118.299 603.051 122.033 603.584 123.366 602.517C124.833 601.317 125.099 577.317 125.099 468.517C125.099 395.584 125.366 335.984 125.766 335.984C126.166 335.984 126.433 395.584 126.433 468.517Z" fill="black"/>
</svg>
