<svg width="642" height="766" viewBox="0 0 642 766" fill="none" xmlns="http://www.w3.org/2000/svg">
<path d="M408.011 0.697307C404.011 1.36397 392.945 4.29731 383.345 7.36397C355.478 16.0306 348.412 16.964 312.278 16.4306C281.345 16.0306 280.545 16.0306 274.278 19.2306C270.812 20.964 266.945 23.764 265.745 25.6306C263.745 28.6973 263.745 29.0973 266.412 32.4306C274.678 42.6973 284.812 59.2306 288.812 68.8306C296.678 87.6306 302.012 112.564 301.078 127.097L300.678 134.297L276.012 147.631C183.478 197.497 140.012 232.297 104.678 284.697C93.4782 301.364 78.4115 333.231 70.8115 356.031C57.6115 395.764 54.0115 420.431 52.0115 482.031C49.7449 550.964 47.0782 586.564 41.8782 618.031C37.8782 641.631 32.8115 653.897 16.4115 680.564C11.4782 688.297 5.8782 698.297 3.8782 702.697C-3.45513 718.031 -0.388461 728.431 13.0782 733.631C21.4782 736.831 45.2115 736.697 69.3449 733.364C81.7449 731.497 94.8115 730.831 111.345 730.831C139.612 730.831 155.478 733.231 196.012 743.631C275.612 764.031 283.478 765.231 332.678 765.364C377.078 765.364 379.612 765.097 441.345 752.697C510.145 738.964 531.211 736.831 577.345 739.231C594.545 740.164 609.611 740.564 610.678 740.297C611.745 739.897 614.278 739.231 616.411 738.831C625.345 736.831 635.345 723.364 639.345 707.764C644.011 689.897 641.211 669.497 628.545 627.364C616.945 589.097 614.811 581.631 609.211 558.697C601.211 526.297 583.745 437.497 575.345 386.697C564.278 319.364 559.211 298.964 547.611 276.031C531.611 243.897 500.945 211.097 465.345 187.631C454.678 180.564 442.411 172.164 438.011 168.831L430.011 162.697L436.678 161.764C440.278 161.231 445.611 159.764 448.411 158.564C452.811 156.564 454.545 156.431 460.411 157.764C464.278 158.697 471.211 160.031 476.011 160.831C480.811 161.497 487.745 162.697 491.345 163.231C505.078 165.631 499.611 161.097 483.345 156.831C477.078 155.097 471.745 153.364 471.345 152.697C470.545 151.364 486.678 150.031 492.545 150.964C496.411 151.497 497.345 151.231 497.345 149.631C497.345 146.697 496.278 146.297 483.611 144.031C476.278 142.697 468.411 140.164 460.811 136.564C446.945 129.897 438.678 129.097 429.345 133.764C426.145 135.364 423.211 136.431 422.945 136.164C422.678 135.897 423.078 132.164 423.878 127.764C426.145 115.764 432.145 105.364 444.145 92.6973C473.878 61.4973 488.011 44.0306 488.011 38.8306C488.011 34.6973 480.945 24.2973 474.278 18.564C459.078 5.63064 429.078 -2.50269 408.011 0.697307ZM449.345 10.564C454.811 12.4306 459.745 14.564 460.278 15.0973C460.811 15.6306 455.745 16.0306 448.945 16.164C435.878 16.2973 432.278 17.364 408.145 28.0306C387.345 37.364 371.212 37.4973 350.012 28.564L339.345 24.0306L346.678 23.0973C359.478 21.2306 373.612 17.764 384.678 13.764C403.878 6.69731 407.611 6.03064 424.011 6.56397C436.278 6.96397 441.345 7.76397 449.345 10.564ZM314.012 22.8306C318.412 24.0306 330.678 28.964 341.345 34.0306C372.945 48.964 377.612 48.564 422.278 28.0306C433.211 23.0973 437.878 21.6306 445.745 21.0973C458.945 20.0306 469.078 23.0973 476.411 30.164L482.011 35.364L476.011 32.6973C462.278 26.6973 439.745 30.4306 412.278 43.4973C391.612 53.2306 384.145 55.364 371.478 55.364C358.145 55.2306 352.545 53.0973 328.678 38.964C308.545 26.964 300.545 24.164 286.412 24.0306C275.345 24.0306 274.545 23.0973 284.012 20.8306C291.078 19.2306 302.812 20.0306 314.012 22.8306ZM473.345 38.0306C474.811 38.8306 476.011 40.2973 476.011 41.2306C476.011 44.4306 457.345 67.4973 442.945 82.0306L429.211 96.0306L430.145 90.164C431.345 81.6306 435.078 71.4973 441.211 59.6306L446.545 49.364L437.478 58.8306C423.878 72.964 413.345 90.6973 409.478 106.031C408.545 109.364 407.611 112.831 407.211 113.764C406.811 114.964 404.811 113.897 400.811 110.431C394.145 104.564 387.345 102.031 378.278 102.031C368.545 102.031 362.678 109.097 363.878 118.964C364.012 119.897 363.612 120.697 362.945 120.697C360.945 120.697 355.745 110.031 352.012 98.4306C348.412 87.2306 346.678 86.4306 346.678 95.764C346.678 98.164 345.478 108.031 344.012 117.764C342.545 127.631 341.345 135.897 341.345 136.164C341.345 136.431 340.812 136.697 340.012 136.697C337.878 136.697 332.145 125.631 328.145 113.897C324.412 102.831 318.945 90.6973 318.012 91.6306C317.745 91.764 318.145 94.6973 318.678 98.0306C320.412 106.431 320.278 121.097 318.678 120.031C318.012 119.631 315.878 114.031 313.878 107.631C304.812 77.0973 300.545 64.964 295.212 53.8973C292.012 47.2306 289.345 41.6306 289.345 41.2306C289.345 40.964 291.745 40.6973 294.678 40.6973C297.878 40.6973 309.212 44.164 324.678 50.0306C354.278 61.2306 362.412 63.364 377.212 63.364C391.345 63.364 405.211 58.964 429.478 46.564C439.078 41.6306 448.811 37.0973 451.078 36.564C456.278 35.2306 469.878 36.164 473.345 38.0306ZM327.478 143.364C339.878 146.964 359.612 149.097 373.345 148.431C386.678 147.764 387.345 148.831 375.345 151.897C355.878 157.097 328.145 152.431 316.012 142.031L312.678 139.231L315.878 140.031C317.478 140.564 322.812 142.031 327.478 143.364ZM304.545 147.631C299.612 156.031 278.412 179.231 264.678 191.231L256.678 198.297L264.012 194.697C279.078 187.097 292.812 175.897 307.212 159.364L313.612 152.031L308.012 162.831C304.812 168.831 298.012 178.697 292.812 184.831L283.478 195.764L291.345 190.697C305.078 182.031 308.812 178.297 321.478 160.431L323.612 157.497L328.545 160.564C331.212 162.297 333.345 164.031 333.078 164.564C332.812 164.964 330.545 169.497 328.012 174.564C319.745 191.097 321.345 207.631 331.612 211.497C339.345 214.431 346.678 207.097 346.678 196.431L346.545 190.697L344.545 194.297C340.812 201.231 332.012 197.364 332.012 188.697C332.012 186.031 338.812 169.497 340.678 167.631C341.478 166.831 353.878 171.764 354.945 173.231C355.478 174.031 356.012 176.164 356.012 178.031C356.012 188.297 363.345 206.831 371.212 216.831C375.478 222.031 389.345 232.697 392.145 232.697C392.678 232.697 390.412 228.964 386.945 224.297C379.345 214.164 373.878 202.431 371.345 190.431C368.412 176.964 368.545 175.897 373.745 174.964C383.478 173.364 396.011 177.231 396.011 181.764C396.411 207.497 400.278 266.964 402.011 273.231C406.945 291.897 420.678 309.497 432.945 313.097C436.678 314.297 443.211 315.631 447.478 316.164L455.211 317.097L450.145 310.564C427.211 280.697 418.678 260.431 416.011 229.364C414.278 209.497 415.611 174.697 418.011 176.697C418.945 177.497 422.678 184.164 426.545 191.764C432.945 204.564 435.211 211.897 443.078 245.364L444.278 250.697L448.011 243.364C454.945 230.031 456.278 211.764 451.345 197.764C450.278 194.697 449.611 191.897 449.878 191.764C450.145 191.497 455.878 195.631 462.811 200.964C479.878 214.164 506.545 241.097 519.345 258.297C543.745 290.697 549.611 308.697 562.678 391.364C566.411 415.231 570.278 438.831 571.211 443.764C572.545 450.431 572.545 453.097 571.478 453.497C568.945 454.297 546.411 456.697 538.678 456.831C531.745 456.964 531.611 457.097 536.011 458.164C538.545 458.697 548.145 459.897 557.345 460.831C566.545 461.631 574.145 462.431 574.278 462.564C574.945 463.097 588.011 526.697 587.745 527.497C587.478 527.897 581.478 526.964 574.411 525.364C567.211 523.764 561.345 522.564 561.345 522.831C561.345 522.964 567.878 526.564 576.011 530.831C584.011 534.964 590.945 539.364 591.211 540.564C591.611 541.764 594.278 552.697 597.211 564.964C603.211 590.031 612.145 622.031 620.278 648.031C625.211 663.631 625.745 666.831 625.878 680.031C626.011 693.364 625.745 695.364 622.678 701.364C618.411 709.497 609.878 715.897 599.211 718.697C585.878 722.297 532.545 721.364 472.011 716.564C453.345 715.097 443.078 715.364 394.011 718.831C354.812 721.764 321.612 720.831 298.678 716.164C272.812 711.097 272.412 710.964 274.678 712.564C280.278 716.031 315.745 726.564 336.278 730.697C357.345 734.831 369.212 736.297 405.345 739.097L418.011 740.031L397.345 743.631C367.345 748.964 350.278 750.431 324.678 749.631C291.478 748.697 273.212 744.964 227.345 729.897C175.612 712.831 161.478 710.297 111.345 708.964C77.7449 708.031 76.5449 707.897 70.6782 704.697C59.4782 698.431 53.3449 684.431 53.3449 664.697C53.3449 656.831 58.2782 615.897 63.4782 581.097C64.0115 577.364 64.9449 576.564 71.7449 573.897C82.9449 569.631 99.3449 567.764 110.278 569.631C115.212 570.564 119.478 570.964 119.745 570.697C120.012 570.564 116.678 568.831 112.412 567.231C105.612 564.431 102.412 564.031 84.8115 564.031H64.9449L65.8782 554.164C66.2782 548.697 66.6782 542.297 66.6782 539.897V535.631L75.7449 538.697C92.9449 544.564 119.612 547.631 129.345 544.831C131.745 544.164 129.878 543.631 122.678 542.964C104.412 541.364 84.9449 533.764 73.4782 523.631L67.4782 518.431L69.2115 484.564C70.0115 465.897 71.0782 448.297 71.4782 445.231L72.2782 439.897L83.4782 444.297C98.0115 450.164 110.145 452.697 123.345 452.564L134.012 452.431L126.012 450.831C110.678 447.631 95.8782 441.231 80.9449 431.097C74.8115 426.964 73.4782 425.364 73.8782 422.964C74.2782 421.364 74.9449 417.231 75.3449 413.764L76.1449 407.364L85.7449 412.564C98.2782 419.497 112.678 423.364 124.678 423.231C133.478 423.097 133.745 422.964 128.678 421.897C110.012 417.497 101.478 413.497 86.5449 402.431L78.4115 396.297L79.2115 390.297C80.4115 381.897 81.0782 381.497 86.4115 386.164C97.3449 395.764 118.412 402.431 129.612 399.764C134.812 398.431 134.945 398.297 131.212 398.164C115.878 397.631 94.2782 385.497 86.6782 373.497C84.1449 369.364 84.1449 368.831 86.1449 361.631L88.2782 354.164L94.6782 358.564C104.412 365.231 117.345 369.897 128.278 370.697L138.012 371.497L128.012 368.297C115.878 364.564 106.678 359.764 98.2782 352.431C92.6782 347.764 91.8782 346.431 92.6782 343.497C93.2115 341.631 93.7449 339.764 94.0115 339.631C94.2782 339.364 97.0782 340.831 100.278 343.097C109.478 349.364 119.345 353.897 125.612 354.697L131.345 355.497L124.678 352.697C117.212 349.497 108.012 342.964 101.612 336.297C97.6115 332.164 97.3449 331.497 98.8115 328.297L100.412 324.831L107.212 330.831C114.145 336.964 128.145 344.697 131.878 344.697C133.078 344.564 132.278 343.631 129.878 342.297C122.678 338.297 116.278 332.697 110.678 325.231C104.812 317.764 104.412 314.964 108.678 309.497C110.678 306.964 110.812 306.964 114.278 310.297C119.345 314.964 124.812 317.497 132.012 318.564L138.012 319.364L131.345 316.297C124.678 313.097 114.678 303.497 114.678 300.297C114.678 299.497 116.012 296.964 117.745 294.964L120.678 291.097L124.012 293.764C128.412 297.231 135.345 300.031 142.012 301.231L147.345 302.164L140.545 298.164C136.678 295.897 131.745 291.897 129.612 289.231C125.612 284.431 125.478 284.164 127.612 280.564L129.745 276.831L135.212 281.231C141.078 285.897 144.278 287.897 150.278 290.164C154.012 291.497 154.012 291.497 149.212 286.431C142.412 279.231 137.345 272.164 137.345 269.764C137.345 267.231 161.078 240.964 172.812 230.564C207.478 200.031 235.612 180.697 275.345 160.431C290.812 152.564 303.878 146.164 304.412 146.031C305.078 146.031 305.078 146.831 304.545 147.631ZM424.945 168.697C439.211 182.697 448.145 200.831 447.878 215.764C447.745 227.631 446.011 231.231 444.811 222.164C442.545 205.497 434.945 188.164 422.011 170.297C418.545 165.764 416.411 162.031 416.945 162.031C417.611 162.031 421.211 164.964 424.945 168.697ZM408.011 205.631C409.211 243.497 411.345 259.897 416.678 273.097C420.678 282.831 427.478 293.364 434.945 301.497C437.878 304.697 440.011 307.364 439.478 307.364C437.611 307.364 424.545 298.297 421.078 294.564C416.011 288.964 410.811 278.031 408.545 267.764C406.811 259.764 404.011 198.831 404.145 170.031C404.278 163.364 404.411 163.097 405.611 166.697C406.278 168.831 407.478 186.431 408.011 205.631Z" fill="black"/>
<path d="M500.678 260.697C511.611 279.497 520.678 300.831 525.745 319.364C526.945 323.364 530.278 337.764 533.345 351.364C543.345 396.031 554.145 436.431 555.611 434.964C556.411 434.164 545.478 367.231 541.345 346.697C533.211 307.897 520.945 280.564 502.678 260.697L497.211 254.697L500.678 260.697Z" fill="black"/>
<path d="M585.478 568.03C585.212 578.697 588.145 604.03 592.678 630.697C595.212 645.63 597.345 661.897 597.345 666.697C597.345 691.764 584.945 698.83 532.012 704.03C520.012 705.23 509.878 706.297 509.745 706.564C509.212 707.097 538.012 709.897 553.612 710.83C578.412 712.43 598.545 707.764 606.545 698.697C615.745 688.164 615.345 679.23 604.012 639.497C597.212 615.63 593.878 601.897 586.945 568.697L585.612 562.697L585.478 568.03Z" fill="black"/>
<path d="M69.6114 632.031C66.0114 671.097 69.2114 685.231 84.0114 693.231C92.8114 698.031 103.078 699.364 130.145 699.364C158.278 699.364 169.611 701.097 202.545 710.697C213.878 714.031 223.345 716.431 223.611 716.164C223.878 715.897 218.145 712.964 211.078 709.497C184.678 696.564 158.811 690.164 122.678 687.364C98.5448 685.497 92.2781 683.631 85.7448 676.164C79.4781 668.964 76.2781 659.364 74.4114 642.164C71.4781 612.831 71.4781 612.831 69.6114 632.031Z" fill="black"/>
</svg>
